# xmcd CD database file
#
# Track frame offsets:
#	150
#	2751
#	19039
#	34600
#	50878
#	66546
#	91017
#	110668
#	129927
#	149004
#	167438
#	181003
#	198180
#	214358
#	235146
#
# Disc length: 3643 seconds
#
# Revision: 0
# Processed by: cddbd v1.5.1PL0 Copyright (c) Steve Scherf et al.
# Submitted via: CDex 1.51
#
DISCID=cd0e390f
DTITLE=Café Drechsler - Radio Snacks
DYEAR=2004
DGENRE=Jazz
TTITLE0=Silence
TTITLE1=Wake Up!
TTITLE2=Train Track
TTITLE3=Come
TTITLE4=Smile
TTITLE5=Soft Ware
TTITLE6=What's Next?
TTITLE7=Free
TTITLE8=Tango Mango
TTITLE9=Green
TTITLE10=Helmet
TTITLE11=Belli Dance
TTITLE12=Red Bullshit
TTITLE13=Gangsta Beat
TTITLE14=Nothing At All
EXTD=YEAR: 2004
EXTT0=
EXTT1=
EXTT2=
EXTT3=
EXTT4=
EXTT5=
EXTT6=
EXTT7=
EXTT8=
EXTT9=
EXTT10=
EXTT11=
EXTT12=
EXTT13=
EXTT14=
PLAYORDER=
